<?xml version="1.0" standalone="no"?><svg xmlns:xlink="http://www.w3.org/1999/xlink" xmlns="http://www.w3.org/2000/svg" viewBox="0 0 820 409.9993407194199" preserveAspectRatio="xMaxYMax slice"><g transform="scale(0.6592805801669106)"><rect x="0" y="0" width="1243.784" height="621.892" fill="#ffffff"/><rect x="0" y="0" width="207.3" height="207.3" fill="#ffe6ec"/><path d="M 0 207.3 A 207.3 207.3 0 0 1  207.3 0 L 207.3 207.3L0 207.3" fill="#879bef"/><rect x="207.3" y="0" width="207.3" height="207.3" fill="#ff84a1"/><path d="M 207.3 0 A 207.3 207.3 0 0 1 414.6 207.3 L 207.3 207.3L207.3 0" fill="#c7d0f8"/><rect x="414.59" y="0" width="207.3" height="207.3" fill="#4c6ae8"/><path d="M 414.59 0 A 207.3 207.3 0 0 1 621.89 207.3 L 414.59 207.3L414.59 0" fill="#ff527b"/><rect x="621.892" y="0" width="207.29733333333334" height="207.29733333333334" fill="#ffffff"/><rect x="621.89" y="0" width="103.65" height="103.65" fill="#a1b1f3"/><path d="M 621.89 103.65 A 103.65 103.65 0 0 1  725.54 0 L 621.89 103.65 A 103.65 103.65 0 0 0 725.54 0" fill="#ffbbcb"/><rect x="725.54" y="0" width="103.65" height="103.65" fill="#516fe8"/><path d="M 725.54 0 A 103.65 103.65 0 0 1  829.1899999999999 103.65 L 725.54 0 A 103.65 103.65 0 0 0 829.1899999999999 103.65" fill="#ffaec2"/><rect x="621.89" y="103.65" width="103.65" height="103.65" fill="#395ae5"/><path d="M 621.89 207.3 A 103.65 103.65 0 0 1  725.54 103.65 L 621.89 207.3 A 103.65 103.65 0 0 0 725.54 103.65" fill="#ffadc0"/><rect x="725.54" y="103.65" width="103.65" height="103.65" fill="#ff99b1"/><path d="M 725.54 103.65 A 103.65 103.65 0 0 1 829.1899999999999 207.3 L 725.54 207.3L725.54 103.65" fill="#fff2f5"/><rect x="829.1893333333334" y="0" width="207.29733333333334" height="207.29733333333334" fill="#ffffff"/><rect x="829.19" y="0" width="103.65" height="103.65" fill="#788fee"/><path d="M 829.19 0 A 103.65 103.65 0 0 0 932.84 103.65 L 932.84 0L829.19 0" fill="#ff5880"/><rect x="932.84" y="0" width="103.65" height="103.65" fill="#6e87ec"/><path d="M 932.84 103.65 A 103.65 103.65 0 0 1  1036.49 0 L 1036.49 103.65L932.84 103.65" fill="#6e86ec"/><rect x="829.19" y="103.65" width="103.65" height="103.65" fill="#dee4fb"/><path d="M 829.19 103.65 A 103.65 103.65 0 0 1 932.84 207.3 L 829.19 207.3L829.19 103.65" fill="#ff3e6c"/><rect x="932.84" y="103.65" width="103.65" height="103.65" fill="#b8c4f6"/><path d="M 932.84 207.3 A 103.65 103.65 0 0 1  1036.49 103.65 L 1036.49 207.3L932.84 207.3" fill="#dbe1fa"/><rect x="1036.49" y="0" width="207.3" height="207.3" fill="#4c6ae8"/><path d="M 1036.49 0 A 207.3 207.3 0 0 0 1243.79 207.3 L 1243.79 0L1036.49 0" fill="#ff7192"/><rect x="0" y="207.29733333333334" width="207.29733333333334" height="207.29733333333334" fill="#ffffff"/><rect x="0" y="207.3" width="103.65" height="103.65" fill="#ff97b0"/><path d="M 0 207.3 A 103.65 103.65 0 0 1  103.65 310.95000000000005 L 0 207.3 A 103.65 103.65 0 0 0 103.65 310.95000000000005" fill="#ff7092"/><rect x="103.65" y="207.3" width="103.65" height="103.65" fill="#294de3"/><path d="M 103.65 207.3 A 103.65 103.65 0 0 1 207.3 310.95000000000005 L 103.65 310.95000000000005L103.65 207.3" fill="#eef1fd"/><rect x="0" y="310.95" width="103.65" height="103.65" fill="#ffd3dd"/><path d="M 0 310.95 A 103.65 103.65 0 0 0 103.65 414.6 L 103.65 310.95L0 310.95" fill="#4c6ae8"/><rect x="103.65" y="310.95" width="103.65" height="103.65" fill="#ff5d83"/><path d="M 103.65 310.95 A 103.65 103.65 0 0 1 207.3 414.6 L 103.65 414.6L103.65 310.95" fill="#4968e7"/><rect x="207.3" y="207.3" width="207.3" height="207.3" fill="#ff5e84"/><path d="M 207.3 207.3 A 207.3 207.3 0 0 1 414.6 414.6 L 207.3 414.6L207.3 207.3" fill="#ff3b6a"/><rect x="414.5946666666667" y="207.29733333333334" width="207.29733333333334" height="207.29733333333334" fill="#ffffff"/><rect x="414.59" y="207.3" width="103.65" height="103.65" fill="#3b5ce6"/><path d="M 414.59 310.95000000000005 A 103.65 103.65 0 0 1  518.24 207.3 L 414.59 310.95000000000005 A 103.65 103.65 0 0 0 518.24 207.3" fill="#3355e4"/><rect x="518.24" y="207.3" width="103.65" height="103.65" fill="#ffacc0"/><path d="M 518.24 310.95000000000005 A 103.65 103.65 0 0 0 621.89 207.3 L 518.24 207.3L518.24 310.95000000000005" fill="#dfe5fb"/><rect x="414.59" y="310.95" width="103.65" height="103.65" fill="#ff6288"/><path d="M 414.59 414.6 A 103.65 103.65 0 0 1  518.24 310.95 L 518.24 414.6L414.59 414.6" fill="#e5eafc"/><rect x="518.24" y="310.95" width="103.65" height="103.65" fill="#e4e9fc"/><path d="M 518.24 414.6 A 103.65 103.65 0 0 0 621.89 310.95 L 518.24 310.95L518.24 414.6" fill="#e7ebfc"/><rect x="621.892" y="207.29733333333334" width="207.29733333333334" height="207.29733333333334" fill="#ffffff"/><rect x="621.89" y="207.3" width="103.65" height="103.65" fill="#264be3"/><path d="M 621.89 310.95000000000005 A 103.65 103.65 0 0 1  725.54 207.3 L 725.54 310.95000000000005L621.89 310.95000000000005" fill="#ff82a0"/><rect x="725.54" y="207.3" width="103.65" height="103.65" fill="#ff9bb3"/><path d="M 725.54 310.95000000000005 A 103.65 103.65 0 0 1  829.1899999999999 207.3 L 725.54 310.95000000000005 A 103.65 103.65 0 0 0 829.1899999999999 207.3" fill="#ff7b9b"/><rect x="621.89" y="310.95" width="103.65" height="103.65" fill="#b4c0f5"/><path d="M 621.89 310.95 A 103.65 103.65 0 0 1  725.54 414.6 L 621.89 310.95 A 103.65 103.65 0 0 0 725.54 414.6" fill="#ffe5eb"/><rect x="725.54" y="310.95" width="103.65" height="103.65" fill="#dbe1fa"/><path d="M 725.54 310.95 A 103.65 103.65 0 0 1  829.1899999999999 414.6 L 725.54 310.95 A 103.65 103.65 0 0 0 829.1899999999999 414.6" fill="#5c77ea"/><rect x="829.19" y="207.3" width="207.3" height="207.3" fill="#7c92ee"/><path d="M 829.19 207.3 A 207.3 207.3 0 0 1 1036.49 414.6 L 829.19 414.6L829.19 207.3" fill="#6680eb"/><rect x="1036.4866666666667" y="207.29733333333334" width="207.29733333333334" height="207.29733333333334" fill="#ffffff"/><rect x="1036.49" y="207.3" width="103.65" height="103.65" fill="#4d6be8"/><path d="M 1036.49 310.95000000000005 A 103.65 103.65 0 0 1  1140.14 207.3 L 1140.14 310.95000000000005L1036.49 310.95000000000005" fill="#ff6288"/><rect x="1140.14" y="207.3" width="103.65" height="103.65" fill="#ff9bb3"/><path d="M 1140.14 310.95000000000005 A 103.65 103.65 0 0 1  1243.7900000000002 207.3 L 1140.14 310.95000000000005 A 103.65 103.65 0 0 0 1243.7900000000002 207.3" fill="#3658e5"/><rect x="1036.49" y="310.95" width="103.65" height="103.65" fill="#ff4873"/><path d="M 1036.49 414.6 A 103.65 103.65 0 0 0 1140.14 310.95 L 1036.49 310.95L1036.49 414.6" fill="#2e51e4"/><rect x="1140.14" y="310.95" width="103.65" height="103.65" fill="#4d6be8"/><path d="M 1140.14 414.6 A 103.65 103.65 0 0 1  1243.7900000000002 310.95 L 1243.7900000000002 414.6L1140.14 414.6" fill="#fffbfc"/><rect x="0" y="414.5946666666667" width="207.29733333333334" height="207.29733333333334" fill="#ffffff"/><rect x="0" y="414.59" width="103.65" height="103.65" fill="#cad3f8"/><path d="M 0 518.24 A 103.65 103.65 0 0 1  103.65 414.59 L 0 518.24 A 103.65 103.65 0 0 0 103.65 414.59" fill="#e6eafc"/><rect x="103.65" y="414.59" width="103.65" height="103.65" fill="#cfd7f9"/><path d="M 103.65 518.24 A 103.65 103.65 0 0 0 207.3 414.59 L 103.65 414.59L103.65 518.24" fill="#ff5f85"/><rect x="0" y="518.24" width="103.65" height="103.65" fill="#ffa5ba"/><path d="M 0 621.89 A 103.65 103.65 0 0 0 103.65 518.24 L 0 518.24L0 621.89" fill="#fff2f5"/><rect x="103.65" y="518.24" width="103.65" height="103.65" fill="#3f60e6"/><path d="M 103.65 518.24 A 103.65 103.65 0 0 1 207.3 621.89 L 103.65 621.89L103.65 518.24" fill="#e3e8fb"/><rect x="207.29733333333334" y="414.5946666666667" width="207.29733333333334" height="207.29733333333334" fill="#ffffff"/><rect x="207.3" y="414.59" width="103.65" height="103.65" fill="#ffdfe6"/><path d="M 207.3 518.24 A 103.65 103.65 0 0 1  310.95000000000005 414.59 L 310.95000000000005 518.24L207.3 518.24" fill="#ffd1dc"/><rect x="310.95" y="414.59" width="103.65" height="103.65" fill="#aebcf5"/><path d="M 310.95 518.24 A 103.65 103.65 0 0 1  414.6 414.59 L 414.6 518.24L310.95 518.24" fill="#9cacf2"/><rect x="207.3" y="518.24" width="103.65" height="103.65" fill="#ff5f85"/><path d="M 207.3 518.24 A 103.65 103.65 0 0 1  310.95000000000005 621.89 L 207.3 518.24 A 103.65 103.65 0 0 0 310.95000000000005 621.89" fill="#a5b4f3"/><rect x="310.95" y="518.24" width="103.65" height="103.65" fill="#ff8faa"/><path d="M 310.95 621.89 A 103.65 103.65 0 0 1  414.6 518.24 L 310.95 621.89 A 103.65 103.65 0 0 0 414.6 518.24" fill="#fff5f7"/><rect x="414.5946666666667" y="414.5946666666667" width="207.29733333333334" height="207.29733333333334" fill="#ffffff"/><rect x="414.59" y="414.59" width="103.65" height="103.65" fill="#ff537c"/><path d="M 414.59 414.59 A 103.65 103.65 0 0 1  518.24 518.24 L 414.59 414.59 A 103.65 103.65 0 0 0 518.24 518.24" fill="#ff6f91"/><rect x="518.24" y="414.59" width="103.65" height="103.65" fill="#eff2fd"/><path d="M 518.24 518.24 A 103.65 103.65 0 0 1  621.89 414.59 L 518.24 518.24 A 103.65 103.65 0 0 0 621.89 414.59" fill="#dbe1fa"/><rect x="414.59" y="518.24" width="103.65" height="103.65" fill="#ff4c76"/><path d="M 414.59 518.24 A 103.65 103.65 0 0 1  518.24 621.89 L 414.59 518.24 A 103.65 103.65 0 0 0 518.24 621.89" fill="#f4f6fe"/><rect x="518.24" y="518.24" width="103.65" height="103.65" fill="#bfc9f7"/><path d="M 518.24 518.24 A 103.65 103.65 0 0 1 621.89 621.89 L 518.24 621.89L518.24 518.24" fill="#b2bff5"/><rect x="621.892" y="414.5946666666667" width="207.29733333333334" height="207.29733333333334" fill="#ffffff"/><rect x="621.89" y="414.59" width="103.65" height="103.65" fill="#ffe6ec"/><path d="M 621.89 518.24 A 103.65 103.65 0 0 1  725.54 414.59 L 621.89 518.24 A 103.65 103.65 0 0 0 725.54 414.59" fill="#fff5f7"/><rect x="725.54" y="414.59" width="103.65" height="103.65" fill="#3255e4"/><path d="M 725.54 518.24 A 103.65 103.65 0 0 1  829.1899999999999 414.59 L 725.54 518.24 A 103.65 103.65 0 0 0 829.1899999999999 414.59" fill="#ffedf1"/><rect x="621.89" y="518.24" width="103.65" height="103.65" fill="#758ced"/><path d="M 621.89 621.89 A 103.65 103.65 0 0 0 725.54 518.24 L 621.89 518.24L621.89 621.89" fill="#2e51e4"/><rect x="725.54" y="518.24" width="103.65" height="103.65" fill="#1e44e2"/><path d="M 725.54 621.89 A 103.65 103.65 0 0 1  829.1899999999999 518.24 L 829.1899999999999 621.89L725.54 621.89" fill="#ff537c"/><rect x="829.19" y="414.59" width="207.3" height="207.3" fill="#ffccd8"/><path d="M 829.19 414.59 A 207.3 207.3 0 0 1 1036.49 621.89 L 829.19 621.89L829.19 414.59" fill="#4565e7"/><rect x="1036.4866666666667" y="414.5946666666667" width="207.29733333333334" height="207.29733333333334" fill="#ffffff"/><rect x="1036.49" y="414.59" width="103.65" height="103.65" fill="#ffb2c5"/><path d="M 1036.49 414.59 A 103.65 103.65 0 0 1  1140.14 518.24 L 1036.49 414.59 A 103.65 103.65 0 0 0 1140.14 518.24" fill="#2247e2"/><rect x="1140.14" y="414.59" width="103.65" height="103.65" fill="#ffc5d3"/><path d="M 1140.14 414.59 A 103.65 103.65 0 0 0 1243.7900000000002 518.24 L 1243.7900000000002 414.59L1140.14 414.59" fill="#ff92ac"/><rect x="1036.49" y="518.24" width="103.65" height="103.65" fill="#ff4672"/><path d="M 1036.49 621.89 A 103.65 103.65 0 0 0 1140.14 518.24 L 1036.49 518.24L1036.49 621.89" fill="#8da0f0"/><rect x="1140.14" y="518.24" width="103.65" height="103.65" fill="#8398ef"/><path d="M 1140.14 621.89 A 103.65 103.65 0 0 0 1243.7900000000002 518.24 L 1140.14 518.24L1140.14 621.89" fill="#cfd7f9"/></g></svg>